# xmcd
#
# Track frame offsets: 
#        150
#        17200
#        35517
#        55788
#        76825
#        98405
#        120777
#
# Disc length: 1970 seconds
#
# Revision: 0
# Processed by: cddbd v1.5.2PL0 Copyright (c) Steve Scherf et al.
# Submitted via: ExactAudioCopy v1.0b3
#
DISCID=4107b007
DTITLE=Rench f. the Lonesome Sisters - Elkhorn Riders
DYEAR=2004
DGENRE=Country/Trip-Hop
TTITLE0=Oh Sleeper
TTITLE1=They All Pale
TTITLE2=Elkhorn Ridge
TTITLE3=What Can I Do
TTITLE4=Bright Morning Stars
TTITLE5=I Have No Mother Now
TTITLE6=O Sing To Me of Heaven
EXTD=
EXTT0=
EXTT1=
EXTT2=
EXTT3=
EXTT4=
EXTT5=
EXTT6=
PLAYORDER=
